 <svg
          xmlns="http://www.w3.org/2000/svg"
          viewBox="0 0 210.69 60"
          class="ssrcss-47d2zd-StyledIcon e6m7o990"
          focusable="false"
          aria-hidden="true"
        >
          <path
            d="M36.76 33.87c-2.21-.78-3.78-.78-7.12-.78h-5.18v11.79H30c4.28 0 5.61-.25 7.37-1a5.58 5.58 0 002.47-2 4.86 4.86 0 00.85-2.55 5.11 5.11 0 00-.87-3.33 6.31 6.31 0 00-3.06-2.13zM35.25 24.36a5.28 5.28 0 001.51-4.23c-.06-2.62-1.6-5-7.63-5h-4.67v11.21h3.37c3.56 0 6.01-.62 7.42-1.98z"
          ></path>
          <path
            d="M0 0v60h63.76V0zm46.69 45.76a11.33 11.33 0 01-5.3 4.24 22.16 22.16 0 01-8.89 1.64H16.72V8.41h12.21a22.73 22.73 0 019 1.44 11.34 11.34 0 014.94 4 9.73 9.73 0 011.8 5.93c0 4.09-1.77 6.94-5.51 8.86a13.9 13.9 0 016.74 3.92 10.42 10.42 0 012.71 7.32 10.86 10.86 0 01-1.92 5.88zM110.22 33.87c-2.21-.78-3.78-.78-7.12-.78h-5.17v11.79h5.5c4.28 0 5.62-.25 7.37-1a5.53 5.53 0 002.47-2 4.69 4.69 0 00.85-2.55 5 5 0 00-.84-3.35 6.22 6.22 0 00-3.06-2.11zM108.71 24.36a5.24 5.24 0 001.51-4.23c-.06-2.62-1.59-5-7.62-5h-4.67v11.21h3.37c3.56 0 6.01-.62 7.41-1.98z"
          ></path>
          <path
            d="M73.46 0v60h63.76V0zm46.69 45.76a11.35 11.35 0 01-5.29 4.24 22.16 22.16 0 01-8.86 1.63H90.19V8.41h12.21a22.73 22.73 0 019 1.44 11.31 11.31 0 014.93 4 9.67 9.67 0 011.8 5.93c.06 4.09-1.76 6.94-5.51 8.86a13.86 13.86 0 016.74 3.92 10.38 10.38 0 012.71 7.32 10.78 10.78 0 01-1.92 5.88zM146.93 0v60h63.76V0zM198 48.24a36.9 36.9 0 01-8.07 3 38.19 38.19 0 01-8.6.93 28.11 28.11 0 01-12.73-2.8 22.06 22.06 0 01-8.73-7.84 20.39 20.39 0 01-3.35-11.13 21.92 21.92 0 013.4-11.71 23 23 0 019-8A28.39 28.39 0 01182 7.86a35.63 35.63 0 017.52 1 58.32 58.32 0 018 2.65v8A40.05 40.05 0 00189.8 16a28.65 28.65 0 00-7.39-1.28 19.92 19.92 0 00-9 1.7 15.8 15.8 0 00-6.57 5.51 14.64 14.64 0 006.46 21.71 21.75 21.75 0 009.09 1.65 26.09 26.09 0 007.1-1.2 34.81 34.81 0 008.5-4z"
          ></path>
        </svg>